<?xml version="1.0" encoding="UTF-8" standalone="no"?>
<svg width="164px" height="75px" viewBox="0 0 164 75" version="1.1" xmlns="http://www.w3.org/2000/svg" xmlns:xlink="http://www.w3.org/1999/xlink">
    <!-- Generator: Sketch 39.1 (31720) - http://www.bohemiancoding.com/sketch -->
    <title>logo</title>
    <desc>Created with Sketch.</desc>
    <defs></defs>
    <g id="Page-1" stroke="none" stroke-width="1" fill="none" fill-rule="evenodd">
        <g id="logo">
            <path d="M7.956,29.408 C7.956,29.816002 8.1359982,30.1039992 8.496,30.272 C8.8560018,30.4400008 9.34799688,30.524 9.972,30.524 L13.896,30.524 C14.5920035,30.524 15.1919975,30.4340009 15.696,30.254 C16.2000025,30.0739991 16.6319982,29.8160017 16.992,29.48 C17.3520018,29.1439983 17.6699986,28.7300025 17.946,28.238 C18.2220014,27.7459975 18.4679989,27.1880031 18.684,26.564 C18.7560004,26.371999 18.8999989,26.276 19.116,26.276 C19.2360006,26.276 19.3619993,26.3059997 19.494,26.366 C19.6260007,26.4260003 19.7639993,26.4919996 19.908,26.564 C19.7399992,27.2840036 19.5780008,28.045996 19.422,28.85 C19.2659992,29.654004 19.1280006,30.559995 19.008,31.568 C18.9839999,31.8320013 18.9120006,31.9999996 18.792,32.072 C18.6719994,32.1440004 18.5280008,32.18 18.36,32.18 C17.951998,32.18 17.4420031,32.1500003 16.83,32.09 C16.2179969,32.0299997 15.6840023,32 15.228,32 L6.228,32 C5.67599724,32 4.9800042,32.0179998 4.14,32.054 C3.2999958,32.0900002 2.49600384,32.1319998 1.728,32.18 C1.67999976,31.9399988 1.656,31.7480007 1.656,31.604 C1.656,31.2679983 1.7759988,31.0760002 2.016,31.028 C3.00000492,30.8599992 3.6719982,30.674001 4.032,30.47 C4.3920018,30.265999 4.572,29.9480022 4.572,29.516 L4.572,11.156 C4.572,10.6759976 4.40400168,10.334001 4.068,10.13 C3.73199832,9.92599898 3.0840048,9.75200072 2.124,9.608 C2.0039994,9.58399988 1.9140003,9.51800054 1.854,9.41 C1.7939997,9.30199946 1.764,9.17600072 1.764,9.032 C1.764,8.86399916 1.78799976,8.6600012 1.836,8.42 C2.65200408,8.46800024 3.45599604,8.50999982 4.248,8.546 C5.04000396,8.58200018 5.71199724,8.6 6.264,8.6 C7.08000408,8.6 7.94399544,8.58200018 8.856,8.546 C9.76800456,8.50999982 10.5839964,8.46800024 11.304,8.42 C11.3520002,8.6600012 11.376,8.85199928 11.376,8.996 C11.376,9.40400204 11.2440013,9.61999988 10.98,9.644 C9.94799484,9.7640006 9.18600246,9.93799886 8.694,10.166 C8.20199754,10.3940011 7.956,10.807997 7.956,11.408 L7.956,29.408 Z M21.672,30.092 C21.672,29.4679969 21.8939978,28.9220023 22.338,28.454 C22.7820022,27.9859977 23.3399966,27.752 24.012,27.752 C24.6360031,27.752 25.1639978,27.9859977 25.596,28.454 C26.0280022,28.9220023 26.244,29.4679969 26.244,30.092 C26.244,30.7880035 26.0280022,31.3579978 25.596,31.802 C25.1639978,32.2460022 24.6360031,32.468 24.012,32.468 C23.3399966,32.468 22.7820022,32.2460022 22.338,31.802 C21.8939978,31.3579978 21.672,30.7880035 21.672,30.092 L21.672,30.092 Z M43.272,23.432 L35.244,23.432 L32.94,29.228 C32.8199994,29.5160014 32.76,29.755999 32.76,29.948 C32.76,30.4520025 33.4919927,30.8119989 34.956,31.028 C35.1240008,31.0520001 35.2379997,31.1179995 35.298,31.226 C35.3580003,31.3340005 35.388,31.4599993 35.388,31.604 C35.388,31.7480007 35.3640002,31.9399988 35.316,32.18 C34.6679968,32.1319998 33.9840036,32.0900002 33.264,32.054 C32.5439964,32.0179998 31.8360035,32 31.14,32 C30.6599976,32 30.1680025,32.0119999 29.664,32.036 C29.1599975,32.0600001 28.6320028,32.1079996 28.08,32.18 C28.0319998,31.987999 28.008,31.796001 28.008,31.604 C28.008,31.4359992 28.0379997,31.2920006 28.098,31.172 C28.1580003,31.0519994 28.283999,30.9800001 28.476,30.956 C29.2200037,30.8359994 29.7779981,30.6860009 30.15,30.506 C30.5220019,30.3259991 30.7919992,30.0440019 30.96,29.66 L39.636,8.78 C39.8040008,8.37199796 40.0319986,8.168 40.32,8.168 C40.4160005,8.168 40.559999,8.19199976 40.752,8.24 L49.464,29.768 C49.6080007,30.1040017 49.9319975,30.367999 50.436,30.56 C50.9400025,30.752001 51.4319976,30.8839996 51.912,30.956 C52.0560007,31.0040002 52.1699996,31.0699996 52.254,31.154 C52.3380004,31.2380004 52.38,31.3879989 52.38,31.604 C52.38,31.7480007 52.3560002,31.9399988 52.308,32.18 C51.5399962,32.1319998 50.7840037,32.0900002 50.04,32.054 C49.2959963,32.0179998 48.6000032,32 47.952,32 C47.2799966,32 46.5120043,32.0179998 45.648,32.054 C44.7839957,32.0900002 44.0040035,32.1319998 43.308,32.18 C43.2599998,31.9399988 43.236,31.7480007 43.236,31.604 C43.236,31.3879989 43.2779996,31.2380004 43.362,31.154 C43.4460004,31.0699996 43.5239996,31.028 43.596,31.028 C44.2200031,30.9079994 44.7239981,30.7700008 45.108,30.614 C45.4920019,30.4579992 45.684,30.2240016 45.684,29.912 C45.684,29.7679993 45.6360005,29.5880011 45.54,29.372 L43.272,23.432 Z M42.696,21.956 L39.348,13.136 L35.856,21.956 L42.696,21.956 Z M54.144,30.092 C54.144,29.4679969 54.3659978,28.9220023 54.81,28.454 C55.2540022,27.9859977 55.8119966,27.752 56.484,27.752 C57.1080031,27.752 57.6359978,27.9859977 58.068,28.454 C58.5000022,28.9220023 58.716,29.4679969 58.716,30.092 C58.716,30.7880035 58.5000022,31.3579978 58.068,31.802 C57.6359978,32.2460022 57.1080031,32.468 56.484,32.468 C55.8119966,32.468 55.2540022,32.2460022 54.81,31.802 C54.3659978,31.3579978 54.144,30.7880035 54.144,30.092 L54.144,30.092 Z M78.48,21.488 L75.816,21.488 L75.816,29.408 C75.816,29.9360026 76.0619975,30.295999 76.554,30.488 C77.0460025,30.680001 77.795995,30.8359994 78.804,30.956 C79.0920014,31.0040002 79.236,31.2079982 79.236,31.568 C79.236,31.7360008 79.2120002,31.9399988 79.164,32.18 C78.5159968,32.1319998 77.7300046,32.0900002 76.806,32.054 C75.8819954,32.0179998 74.9760044,32 74.088,32 C73.4639969,32 72.7440041,32.0179998 71.928,32.054 C71.1119959,32.0900002 70.3440036,32.1319998 69.624,32.18 C69.5759998,31.9399988 69.552,31.7480007 69.552,31.604 C69.552,31.2679983 69.6839987,31.0760002 69.948,31.028 C70.8600046,30.8839993 71.5019981,30.710001 71.874,30.506 C72.2460019,30.301999 72.432,29.9600024 72.432,29.48 L72.432,11.156 C72.432,10.6999977 72.2580017,10.3580011 71.91,10.13 C71.5619983,9.90199886 70.884005,9.7280006 69.876,9.608 C69.6359988,9.58399988 69.516,9.38000192 69.516,8.996 C69.516,8.85199928 69.5399998,8.6600012 69.588,8.42 C70.3080036,8.46800024 71.0519962,8.50999982 71.82,8.546 C72.5880038,8.58200018 73.3199965,8.6 74.016,8.6 L78.876,8.6 C81.468013,8.6 83.4239934,9.1699943 84.744,10.31 C86.0640066,11.4500057 86.724,12.9919903 86.724,14.936 C86.724,15.4640026 86.6340009,16.0159971 86.454,16.592 C86.2739991,17.1680029 85.9980019,17.7319972 85.626,18.284 C85.2539981,18.8360028 84.7740029,19.3459977 84.186,19.814 C83.5979971,20.2820023 82.908004,20.6599986 82.116,20.948 L88.128,29.3 C88.5840023,29.9240031 89.0879972,30.3559988 89.64,30.596 C90.1920028,30.8360012 90.7079976,31.0159994 91.188,31.136 C91.4040011,31.1840002 91.512,31.3519986 91.512,31.64 C91.512,31.832001 91.4880002,32.0479988 91.44,32.288 C90.8879972,32.2399998 90.216004,32.1980002 89.424,32.162 C88.631996,32.1259998 87.9000034,32.108 87.228,32.108 C86.7239975,32.108 86.2140026,31.8920022 85.698,31.46 C85.1819974,31.0279978 84.6960023,30.4760034 84.24,29.804 L78.48,21.488 Z M77.724,20.012 C79.4040084,20.012 80.6999954,19.6580035 81.612,18.95 C82.5240046,18.2419965 82.98,17.0000089 82.98,15.224 C82.98,14.4799963 82.884001,13.7960031 82.692,13.172 C82.499999,12.5479969 82.1940021,12.0080023 81.774,11.552 C81.3539979,11.0959977 80.8020034,10.7360013 80.118,10.472 C79.4339966,10.2079987 78.6000049,10.076 77.616,10.076 L75.816,10.076 L75.816,20.012 L77.724,20.012 Z M96.336,32 C95.927998,32 95.5140021,32.0059999 95.094,32.018 C94.6739979,32.0300001 94.2840018,32.0479999 93.924,32.072 C93.5639982,32.0960001 93.2520013,32.1199999 92.988,32.144 C92.7239987,32.1680001 92.5560004,32.18 92.484,32.18 C92.484,32.1559999 92.4720001,32.0720007 92.448,31.928 C92.4239999,31.7839993 92.412,31.6760004 92.412,31.604 C92.412,31.3639988 92.5199989,31.2200002 92.736,31.172 C93.3600031,31.0519994 93.8639981,30.9080008 94.248,30.74 C94.6320019,30.5719992 94.824,30.2960019 94.824,29.912 L94.824,20.12 C94.824,19.3999964 94.6980013,18.8840016 94.446,18.572 C94.1939987,18.2599984 93.6480042,18.0680004 92.808,17.996 C92.4959984,17.9479998 92.34,17.7800014 92.34,17.492 C92.34,17.3719994 92.3639998,17.216001 92.412,17.024 C92.7240016,17.024 93.1619972,17.0060002 93.726,16.97 C94.2900028,16.9339998 94.7519982,16.8920002 95.112,16.844 C95.6640028,16.7479995 96.1559978,16.6460005 96.588,16.538 C97.0200022,16.4299995 97.331999,16.376 97.524,16.376 C97.8600017,16.376 98.028,16.5559982 98.028,16.916 C98.028,17.2520017 97.9920004,17.6539977 97.92,18.122 C97.8479996,18.5900023 97.812,19.2079962 97.812,19.976 L97.812,29.912 C97.812,30.2960019 97.9979981,30.5719992 98.37,30.74 C98.7420019,30.9080008 99.2639966,31.0519994 99.936,31.172 C100.128001,31.2200002 100.224,31.3639988 100.224,31.604 C100.224,31.6760004 100.218,31.7839993 100.206,31.928 C100.194,32.0720007 100.176,32.1559999 100.152,32.18 C100.08,32.18 99.9180013,32.1680001 99.666,32.144 C99.4139987,32.1199999 99.1080018,32.0960001 98.748,32.072 C98.3879982,32.0479999 97.9980021,32.0300001 97.578,32.018 C97.1579979,32.0059999 96.744002,32 96.336,32 L96.336,32 Z M94.248,10.364 C94.248,9.78799712 94.445998,9.2900021 94.842,8.87 C95.238002,8.4499979 95.735997,8.24 96.336,8.24 C96.9120029,8.24 97.3919981,8.4499979 97.776,8.87 C98.1600019,9.2900021 98.352,9.78799712 98.352,10.364 C98.352,10.9880031 98.1600019,11.4919981 97.776,11.876 C97.3919981,12.2600019 96.9120029,12.452 96.336,12.452 C95.735997,12.452 95.238002,12.2600019 94.842,11.876 C94.445998,11.4919981 94.248,10.9880031 94.248,10.364 L94.248,10.364 Z M104.436,31.244 C103.403995,30.643997 102.888,29.7800056 102.888,28.652 C102.888,27.451994 103.679992,26.4680038 105.264,25.7 C104.591997,25.291998 104.058002,24.7460034 103.662,24.062 C103.265998,23.3779966 103.068,22.532005 103.068,21.524 C103.068,20.8519966 103.229998,20.2040031 103.554,19.58 C103.878002,18.9559969 104.315997,18.4040024 104.868,17.924 C105.420003,17.4439976 106.049996,17.0660014 106.758,16.79 C107.466004,16.5139986 108.215996,16.376 109.008,16.376 C110.208006,16.376 111.167996,16.5199986 111.888,16.808 C112.608004,17.0960014 113.231997,17.4559978 113.76,17.888 L117.324,16.34 C117.588001,16.5080008 117.779999,16.7299986 117.9,17.006 C118.020001,17.2820014 118.08,17.5399988 118.08,17.78 C118.08,18.3080026 117.900002,18.572 117.54,18.572 L116.244,18.536 C115.787998,18.536 115.236003,18.6079993 114.588,18.752 C115.164003,19.4960037 115.452,20.4079946 115.452,21.488 C115.452,22.2320037 115.284002,22.9159969 114.948,23.54 C114.611998,24.1640031 114.156003,24.6979978 113.58,25.142 C113.003997,25.5860022 112.320004,25.9339987 111.528,26.186 C110.735996,26.4380013 109.896004,26.564 109.008,26.564 C108.503997,26.564 108.024002,26.5340003 107.568,26.474 C107.111998,26.4139997 106.680002,26.3120007 106.272,26.168 C105.647997,26.4560014 105.216001,26.7439986 104.976,27.032 C104.735999,27.3200014 104.616,27.5959987 104.616,27.86 C104.616,28.052001 104.675999,28.2379991 104.796,28.418 C104.916001,28.5980009 105.137998,28.7539993 105.462,28.886 C105.786002,29.0180007 106.241997,29.1259996 106.83,29.21 C107.418003,29.2940004 108.167995,29.336 109.08,29.336 C110.160005,29.336 111.179995,29.4199992 112.14,29.588 C113.100005,29.7560008 113.945996,30.0319981 114.678,30.416 C115.410004,30.8000019 115.985998,31.3039969 116.406,31.928 C116.826002,32.5520031 117.036,33.3079956 117.036,34.196 C117.036,35.1800049 116.838002,36.067996 116.442,36.86 C116.045998,37.652004 115.494004,38.3299972 114.786,38.894 C114.077996,39.4580028 113.226005,39.8899985 112.23,40.19 C111.233995,40.4900015 110.148006,40.64 108.972,40.64 C106.715989,40.64 104.952006,40.2320041 103.68,39.416 C102.407994,38.5999959 101.772,37.292009 101.772,35.492 C101.772,34.9639974 101.855999,34.4780022 102.024,34.034 C102.192001,33.5899978 102.401999,33.1880018 102.654,32.828 C102.906001,32.4679982 103.193998,32.1560013 103.518,31.892 C103.842002,31.6279987 104.147999,31.4120008 104.436,31.244 L104.436,31.244 Z M105.3,31.676 C104.723997,32.2280028 104.4,32.9239958 104.328,33.764 C104.304,33.956001 104.292,34.147999 104.292,34.34 L104.292,34.952 C104.316,35.4560025 104.447999,35.9599975 104.688,36.464 C104.928001,36.9680025 105.275998,37.4119981 105.732,37.796 C106.188002,38.1800019 106.751997,38.4919988 107.424,38.732 C108.096003,38.9720012 108.875996,39.092 109.764,39.092 C111.420008,39.092 112.625996,38.7260037 113.382,37.994 C114.138004,37.2619963 114.516,36.3560054 114.516,35.276 C114.516,34.8199977 114.420001,34.4000019 114.228,34.016 C114.035999,33.6319981 113.712002,33.3020014 113.256,33.026 C112.799998,32.7499986 112.200004,32.5340008 111.456,32.378 C110.711996,32.2219992 109.788006,32.144 108.684,32.144 C108.059997,32.144 107.454003,32.1080004 106.866,32.036 C106.277997,31.9639996 105.756002,31.8440008 105.3,31.676 L105.3,31.676 Z M109.368,25.304 C110.256004,25.304 110.963997,25.0160029 111.492,24.44 C112.020003,23.8639971 112.284,23.072005 112.284,22.064 C112.284,21.5359974 112.230001,21.0140026 112.122,20.498 C112.013999,19.9819974 111.828001,19.5140021 111.564,19.094 C111.299999,18.6739979 110.946002,18.3320013 110.502,18.068 C110.057998,17.8039987 109.500003,17.672 108.828,17.672 C107.987996,17.672 107.322002,17.9479972 106.83,18.5 C106.337998,19.0520028 106.092,19.8079952 106.092,20.768 C106.092,21.3200028 106.145999,21.8659973 106.254,22.406 C106.362001,22.9460027 106.541999,23.4319978 106.794,23.864 C107.046001,24.2960022 107.381998,24.6439987 107.802,24.908 C108.222002,25.1720013 108.743997,25.304 109.368,25.304 L109.368,25.304 Z M125.208,19.94 C125.28,19.8919998 125.483998,19.6760019 125.82,19.292 C126.156002,18.9079981 126.593997,18.5000022 127.134,18.068 C127.674003,17.6359978 128.291997,17.2460017 128.988,16.898 C129.684003,16.5499983 130.451996,16.376 131.292,16.376 C131.868003,16.376 132.419997,16.4599992 132.948,16.628 C133.476003,16.7960008 133.937998,17.0719981 134.334,17.456 C134.730002,17.8400019 135.047999,18.331997 135.288,18.932 C135.528001,19.532003 135.648,20.2759956 135.648,21.164 L135.648,29.948 C135.648,30.3080018 135.863998,30.5779991 136.296,30.758 C136.728002,30.9380009 137.219997,31.0759995 137.772,31.172 C137.964001,31.2200002 138.06,31.3639988 138.06,31.604 C138.06,31.7480007 138.036,31.9399988 137.988,32.18 C137.363997,32.1319998 136.758003,32.0900002 136.17,32.054 C135.581997,32.0179998 134.928004,32 134.208,32 C133.583997,32 132.954003,32.0179998 132.318,32.054 C131.681997,32.0900002 131.052003,32.1319998 130.428,32.18 C130.38,31.9399988 130.356,31.7480007 130.356,31.604 C130.356,31.3639988 130.463999,31.2200002 130.68,31.172 C130.896001,31.1479999 131.117999,31.1000004 131.346,31.028 C131.574001,30.9559996 131.783999,30.8720005 131.976,30.776 C132.168001,30.6799995 132.329999,30.5660007 132.462,30.434 C132.594001,30.3019993 132.66,30.140001 132.66,29.948 L132.66,22.892 C132.66,22.291997 132.624,21.7400025 132.552,21.236 C132.48,20.7319975 132.342001,20.2940019 132.138,19.922 C131.933999,19.5499981 131.658002,19.262001 131.31,19.058 C130.961998,18.853999 130.512003,18.752 129.96,18.752 C129.359997,18.752 128.772003,18.853999 128.196,19.058 C127.619997,19.262001 127.110002,19.561998 126.666,19.958 C126.221998,20.354002 125.868001,20.8399971 125.604,21.416 C125.339999,21.9920029 125.208,22.6519963 125.208,23.396 L125.208,29.948 C125.208,30.3080018 125.411998,30.5779991 125.82,30.758 C126.228002,30.9380009 126.683997,31.0759995 127.188,31.172 C127.404001,31.2200002 127.512,31.3639988 127.512,31.604 C127.512,31.7480007 127.488,31.9399988 127.44,32.18 C126.815997,32.1319998 126.204003,32.0900002 125.604,32.054 C125.003997,32.0179998 124.368003,32 123.696,32 C122.999997,32 122.340003,32.0179998 121.716,32.054 C121.091997,32.0900002 120.480003,32.1319998 119.88,32.18 C119.832,31.9399988 119.808,31.7480007 119.808,31.604 C119.808,31.3639988 119.903999,31.2200002 120.096,31.172 C120.648003,31.0759995 121.139998,30.9380009 121.572,30.758 C122.004002,30.5779991 122.22,30.2960019 122.22,29.912 L122.22,10.544 C122.22,9.77599616 122.076001,9.26000132 121.788,8.996 C121.499999,8.73199868 120.924004,8.55200048 120.06,8.456 C119.747998,8.40799976 119.592,8.24000144 119.592,7.952 C119.592,7.80799928 119.616,7.64000096 119.664,7.448 C119.976002,7.448 120.407997,7.43000018 120.96,7.394 C121.512003,7.35799982 122.015998,7.31600024 122.472,7.268 C123.024003,7.19599964 123.515998,7.1000006 123.948,6.98 C124.380002,6.8599994 124.691999,6.8 124.884,6.8 C125.100001,6.8 125.244,6.84799952 125.316,6.944 C125.388,7.04000048 125.424,7.17199916 125.424,7.34 C125.424,7.74800204 125.388,8.2219973 125.316,8.762 C125.244,9.3020027 125.208,9.9319964 125.208,10.652 L125.208,19.94 Z M148.716,29.876 C148.836001,29.7559994 148.938,29.6840001 149.022,29.66 C149.106,29.6359999 149.172,29.624 149.22,29.624 C149.436001,29.624 149.627999,29.7799984 149.796,30.092 C149.171997,30.7880035 148.500004,31.3519978 147.78,31.784 C147.059996,32.2160022 146.292004,32.432 145.476,32.432 C144.995998,32.432 144.540002,32.3780005 144.108,32.27 C143.675998,32.1619995 143.304002,31.9520016 142.992,31.64 C142.679998,31.3279984 142.434001,30.9020027 142.254,30.362 C142.073999,29.8219973 141.984,29.1200043 141.984,28.256 L141.984,18.32 L139.824,18.32 L139.824,17.924 C139.824,17.7559992 139.854,17.6000007 139.914,17.456 C139.974,17.3119993 140.099999,17.24 140.292,17.24 C140.940003,17.24 141.467998,17.0720017 141.876,16.736 C142.284002,16.3999983 142.619999,15.9680026 142.884,15.44 C143.172001,14.8639971 143.423999,14.3240025 143.64,13.82 C143.856001,13.3159975 144.095999,13.064 144.36,13.064 L145.008,13.064 L145.008,16.808 L149.22,16.808 C149.22,17.3120025 149.166001,17.6899987 149.058,17.942 C148.949999,18.1940013 148.752001,18.32 148.464,18.32 L145.008,18.32 L145.008,27.248 C145.008,28.0160038 145.044,28.6339977 145.116,29.102 C145.188,29.5700023 145.295999,29.9299987 145.44,30.182 C145.584001,30.4340013 145.751999,30.5959996 145.944,30.668 C146.136001,30.7400004 146.351999,30.776 146.592,30.776 C147.000002,30.776 147.377998,30.6860009 147.726,30.506 C148.074002,30.3259991 148.403998,30.1160012 148.716,29.876 L148.716,29.876 Z M161.064,20.804 C160.871999,20.804 160.734,20.7620004 160.65,20.678 C160.566,20.5939996 160.512,20.5040005 160.488,20.408 C160.319999,19.4239951 159.930003,18.7220021 159.318,18.302 C158.705997,17.8819979 157.944005,17.672 157.032,17.672 C156.335997,17.672 155.718003,17.869998 155.178,18.266 C154.637997,18.662002 154.368,19.2079965 154.368,19.904 C154.368,20.5280031 154.613998,21.0499979 155.106,21.47 C155.598002,21.8900021 156.491994,22.303998 157.788,22.712 C158.484003,22.9280011 159.125997,23.1679987 159.714,23.432 C160.302003,23.6960013 160.805998,24.0139981 161.226,24.386 C161.646002,24.7580019 161.975999,25.2139973 162.216,25.754 C162.456001,26.2940027 162.576,26.9359963 162.576,27.68 C162.576,28.3040031 162.462001,28.9039971 162.234,29.48 C162.005999,30.0560029 161.658002,30.5599978 161.19,30.992 C160.721998,31.4240022 160.134004,31.7719987 159.426,32.036 C158.717996,32.3000013 157.872005,32.432 156.888,32.432 C156.119996,32.432 155.262005,32.3420009 154.314,32.162 C153.365995,31.9819991 152.508004,31.6760022 151.74,31.244 C151.692,30.6199969 151.65,29.9660034 151.614,29.282 C151.578,28.5979966 151.56,27.9080035 151.56,27.212 L151.92,27.212 C152.160001,27.212 152.363999,27.2539996 152.532,27.338 C152.700001,27.4220004 152.796,27.559999 152.82,27.752 C152.916,28.760005 153.305997,29.5699969 153.99,30.182 C154.674003,30.7940031 155.627994,31.1 156.852,31.1 C157.836005,31.1 158.591997,30.8780022 159.12,30.434 C159.648003,29.9899978 159.912,29.3840038 159.912,28.616 C159.912,27.823996 159.624003,27.2180021 159.048,26.798 C158.471997,26.3779979 157.620006,26.0000017 156.492,25.664 C155.075993,25.2319978 153.966004,24.6680035 153.162,23.972 C152.357996,23.2759965 151.956,22.2560067 151.956,20.912 C151.956,20.2879969 152.075999,19.7000028 152.316,19.148 C152.556001,18.5959972 152.891998,18.116002 153.324,17.708 C153.756002,17.299998 154.283997,16.9760012 154.908,16.736 C155.532003,16.4959988 156.227996,16.376 156.996,16.376 C157.956005,16.376 158.861996,16.5019987 159.714,16.754 C160.566004,17.0060013 161.231998,17.2759986 161.712,17.564 C161.736,17.756001 161.76,17.9899986 161.784,18.266 C161.808,18.5420014 161.826,18.8299985 161.838,19.13 C161.85,19.4300015 161.862,19.7299985 161.874,20.03 C161.886,20.3300015 161.892,20.5999988 161.892,20.84 L161.064,20.804 Z" id="L.A.-Rights" fill="#1E1E1E"></path>
            <path d="M37.536,69.848 C37.536,70.0293342 37.6159992,70.157333 37.776,70.232 C37.9360008,70.306667 38.1546653,70.344 38.432,70.344 L40.176,70.344 C40.4853349,70.344 40.7519989,70.3040004 40.976,70.224 C41.2000011,70.1439996 41.3919992,70.0293341 41.552,69.88 C41.7120008,69.7306659 41.8533327,69.5466678 41.976,69.328 C42.0986673,69.1093322 42.2079995,68.8613347 42.304,68.584 C42.3360002,68.4986662 42.3999995,68.456 42.496,68.456 C42.5493336,68.456 42.605333,68.4693332 42.664,68.496 C42.722667,68.5226668 42.7839997,68.5519998 42.848,68.584 C42.773333,68.9040016 42.7013337,69.2426649 42.632,69.6 C42.5626663,69.9573351 42.5013336,70.3599978 42.448,70.808 C42.4373333,70.9253339 42.4053336,70.9999998 42.352,71.032 C42.2986664,71.0640002 42.234667,71.08 42.16,71.08 C41.9786658,71.08 41.7520014,71.0666668 41.48,71.04 C41.2079986,71.0133332 40.9706677,71 40.768,71 L36.768,71 C36.5226654,71 36.2133352,71.0079999 35.84,71.024 C35.4666648,71.0400001 35.109335,71.0586666 34.768,71.08 C34.7466666,70.9733328 34.736,70.8880003 34.736,70.824 C34.736,70.6746659 34.7893328,70.5893334 34.896,70.568 C35.3333355,70.493333 35.6319992,70.4106671 35.792,70.32 C35.9520008,70.2293329 36.032,70.088001 36.032,69.896 L36.032,61.736 C36.032,61.5226656 35.9573341,61.3706671 35.808,61.28 C35.6586659,61.1893329 35.3706688,61.1120003 34.944,61.048 C34.8906664,61.0373333 34.8506668,61.0080002 34.824,60.96 C34.7973332,60.9119998 34.784,60.8560003 34.784,60.792 C34.784,60.717333 34.7946666,60.6266672 34.816,60.52 C35.1786685,60.5413334 35.5359982,60.5599999 35.888,60.576 C36.2400018,60.5920001 36.5386654,60.6 36.784,60.6 C37.1466685,60.6 37.5306646,60.5920001 37.936,60.576 C38.3413354,60.5599999 38.7039984,60.5413334 39.024,60.52 C39.0453334,60.6266672 39.056,60.7119997 39.056,60.776 C39.056,60.9573342 38.9973339,61.0533333 38.88,61.064 C38.421331,61.1173336 38.0826678,61.1946662 37.864,61.296 C37.6453322,61.3973338 37.536,61.581332 37.536,61.848 L37.536,69.848 Z M49.792,67.192 L46.224,67.192 L45.2,69.768 C45.1466664,69.8960006 45.12,70.0026662 45.12,70.088 C45.12,70.3120011 45.4453301,70.4719995 46.096,70.568 C46.170667,70.5786667 46.2213332,70.6079998 46.248,70.656 C46.2746668,70.7040002 46.288,70.7599997 46.288,70.824 C46.288,70.8880003 46.2773334,70.9733328 46.256,71.08 C45.9679986,71.0586666 45.6640016,71.0400001 45.344,71.024 C45.0239984,71.0079999 44.7093349,71 44.4,71 C44.1866656,71 43.9680011,71.0053333 43.744,71.016 C43.5199989,71.0266667 43.2853346,71.0479998 43.04,71.08 C43.0186666,70.9946662 43.008,70.9093338 43.008,70.824 C43.008,70.749333 43.0213332,70.6853336 43.048,70.632 C43.0746668,70.5786664 43.1306662,70.5466667 43.216,70.536 C43.5466683,70.4826664 43.7946658,70.4160004 43.96,70.336 C44.1253342,70.2559996 44.245333,70.1306675 44.32,69.96 L48.176,60.68 C48.250667,60.4986658 48.3519994,60.408 48.48,60.408 C48.5226669,60.408 48.5866662,60.4186666 48.672,60.44 L52.544,70.008 C52.6080003,70.1573341 52.7519989,70.2746662 52.976,70.36 C53.2000011,70.4453338 53.4186656,70.5039998 53.632,70.536 C53.6960003,70.5573334 53.7466665,70.5866665 53.784,70.624 C53.8213335,70.6613335 53.84,70.7279995 53.84,70.824 C53.84,70.8880003 53.8293334,70.9733328 53.808,71.08 C53.466665,71.0586666 53.1306683,71.0400001 52.8,71.024 C52.4693317,71.0079999 52.1600014,71 51.872,71 C51.5733318,71 51.2320019,71.0079999 50.848,71.024 C50.4639981,71.0400001 50.1173349,71.0586666 49.808,71.08 C49.7866666,70.9733328 49.776,70.8880003 49.776,70.824 C49.776,70.7279995 49.7946665,70.6613335 49.832,70.624 C49.8693335,70.5866665 49.9039998,70.568 49.936,70.568 C50.2133347,70.5146664 50.4373325,70.4533337 50.608,70.384 C50.7786675,70.3146663 50.864,70.2106674 50.864,70.072 C50.864,70.0079997 50.8426669,69.9280005 50.8,69.832 L49.792,67.192 Z M49.536,66.536 L48.048,62.616 L46.496,66.536 L49.536,66.536 Z M62.128,60.44 C62.1920003,60.4186666 62.2453331,60.408 62.288,60.408 C62.3946672,60.408 62.4693331,60.4773326 62.512,60.616 L65.216,68.376 L67.488,61.88 C67.5093334,61.8159997 67.5253333,61.7573336 67.536,61.704 C67.5466667,61.6506664 67.552,61.6026669 67.552,61.56 C67.552,61.4106659 67.4746674,61.298667 67.32,61.224 C67.1653326,61.149333 66.917335,61.0906669 66.576,61.048 C66.4586661,61.0373333 66.4,60.9466675 66.4,60.776 C66.4,60.6906662 66.4106666,60.6053338 66.432,60.52 C66.7093347,60.5413334 66.9999985,60.5599999 67.304,60.576 C67.6080015,60.5920001 67.8773322,60.6 68.112,60.6 C68.3680013,60.6 68.6426652,60.5920001 68.936,60.576 C69.2293348,60.5599999 69.4613325,60.5413334 69.632,60.52 C69.632,60.5520002 69.6373333,60.5946664 69.648,60.648 C69.6586667,60.7013336 69.664,60.7439998 69.664,60.776 C69.664,60.9466675 69.6000006,61.0426666 69.472,61.064 C69.1519984,61.1066669 68.9093342,61.1679996 68.744,61.248 C68.5786658,61.3280004 68.458667,61.4693323 68.384,61.672 L65.008,71.16 C64.9439997,71.1813334 64.8853336,71.192 64.832,71.192 C64.7039994,71.192 64.6080003,71.096001 64.544,70.904 L61.872,63.368 L59.152,71.16 C59.1093331,71.1813334 59.0560003,71.192 58.992,71.192 C58.8639994,71.192 58.7680003,71.096001 58.704,70.904 L55.264,61.592 C55.2106664,61.4426659 55.1120007,61.330667 54.968,61.256 C54.8239993,61.181333 54.5600019,61.1173336 54.176,61.064 C54.0586661,61.0319998 54,60.9306675 54,60.76 C54,60.7066664 54.0106666,60.6266672 54.032,60.52 C54.1813341,60.5306667 54.3439991,60.5413333 54.52,60.552 C54.6960009,60.5626667 54.8719991,60.5706666 55.048,60.576 C55.2240009,60.5813334 55.3946658,60.5866666 55.56,60.592 C55.7253342,60.5973334 55.8719994,60.6 56,60.6 C56.266668,60.6 56.5893314,60.5920001 56.968,60.576 C57.3466686,60.5599999 57.7013317,60.5413334 58.032,60.52 C58.0533334,60.6266672 58.064,60.7119997 58.064,60.776 C58.064,60.9360008 58.0053339,61.0266666 57.888,61.048 C57.5786651,61.0800002 57.3386675,61.1359996 57.168,61.216 C56.9973325,61.2960004 56.912,61.4159992 56.912,61.576 C56.912,61.6400003 56.9279998,61.7039997 56.96,61.768 L59.376,68.376 L62.128,60.44 Z M73.808,65.8 C73.808,65.0639963 73.941332,64.3706699 74.208,63.72 C74.474668,63.0693301 74.837331,62.4986691 75.296,62.008 C75.754669,61.5173309 76.287997,61.1280014 76.896,60.84 C77.504003,60.5519986 78.1439966,60.408 78.816,60.408 C79.7440046,60.408 80.5546632,60.5546652 81.248,60.848 C81.9413368,61.1413348 82.5146644,61.5359975 82.968,62.032 C83.4213356,62.5280025 83.7599989,63.1013301 83.984,63.752 C84.2080011,64.4026699 84.32,65.0853298 84.32,65.8 C84.32,66.6426709 84.1813347,67.39733 83.904,68.064 C83.6266653,68.73067 83.2453358,69.2959977 82.76,69.76 C82.2746642,70.2240023 81.7040033,70.5786654 81.048,70.824 C80.3919967,71.0693346 79.6906704,71.192 78.944,71.192 C78.1866629,71.192 77.4933365,71.0640013 76.864,70.808 C76.2346635,70.5519987 75.6933356,70.186669 75.24,69.712 C74.7866644,69.237331 74.4346679,68.6693366 74.184,68.008 C73.9333321,67.3466634 73.808,66.6106707 73.808,65.8 L73.808,65.8 Z M79.312,70.424 C79.8133358,70.424 80.2719979,70.328001 80.688,70.136 C81.1040021,69.943999 81.4613318,69.677335 81.76,69.336 C82.0586682,68.994665 82.2906658,68.5893357 82.456,68.12 C82.6213342,67.6506643 82.704,67.1386694 82.704,66.584 C82.704,65.8159962 82.6240008,65.1040033 82.464,64.448 C82.3039992,63.7919967 82.061335,63.2213358 81.736,62.736 C81.410665,62.2506642 81.0000025,61.8693347 80.504,61.592 C80.0079975,61.3146653 79.4293366,61.176 78.768,61.176 C78.3306645,61.176 77.912002,61.2586658 77.512,61.424 C77.111998,61.5893342 76.7600015,61.8293318 76.456,62.144 C76.1519985,62.4586682 75.9093342,62.845331 75.728,63.304 C75.5466658,63.762669 75.456,64.2906637 75.456,64.888 C75.456,65.6773373 75.5413325,66.4106633 75.712,67.088 C75.8826675,67.7653367 76.130665,68.3519975 76.456,68.848 C76.781335,69.3440025 77.1839976,69.7306653 77.664,70.008 C78.1440024,70.2853347 78.6933302,70.424 79.312,70.424 L79.312,70.424 Z M87.104,61.736 C87.104,61.5226656 87.0213342,61.3733338 86.856,61.288 C86.6906658,61.2026662 86.3946688,61.122667 85.968,61.048 C85.893333,61.0266666 85.8480001,60.9973335 85.832,60.96 C85.8159999,60.9226665 85.808,60.8613338 85.808,60.776 C85.808,60.7119997 85.8186666,60.6266672 85.84,60.52 C86.1920018,60.5413334 86.5333317,60.5599999 86.864,60.576 C87.1946683,60.5920001 87.5093318,60.6 87.808,60.6 L90.976,60.6 C91.3920021,60.6 91.7866648,60.5840002 92.16,60.552 C92.5333352,60.5199998 92.7893326,60.504 92.928,60.504 C93.0560006,60.504 93.1466664,60.5919991 93.2,60.768 C93.2533336,60.9440009 93.2959998,61.1546654 93.328,61.4 C93.3600002,61.6453346 93.3973331,61.9039986 93.44,62.176 C93.4826669,62.4480014 93.5573328,62.6853323 93.664,62.888 C93.6319998,62.9306669 93.5893336,62.9599999 93.536,62.976 C93.4826664,62.9920001 93.4293336,63 93.376,63 C93.2479994,63 93.1626669,62.9520005 93.12,62.856 C92.9919994,62.5679986 92.8666673,62.3226677 92.744,62.12 C92.6213327,61.9173323 92.4826674,61.7520006 92.328,61.624 C92.1733326,61.4959994 91.9893344,61.402667 91.776,61.344 C91.5626656,61.285333 91.2960016,61.256 90.976,61.256 L88.608,61.256 L88.608,65.512 L90.992,65.512 C91.2053344,65.512 91.3573329,65.408001 91.448,65.2 C91.5386671,64.991999 91.6106664,64.7440014 91.664,64.456 C91.6960002,64.3173326 91.7919992,64.248 91.952,64.248 C92.0373338,64.248 92.1226662,64.2586666 92.208,64.28 C92.1866666,64.5146678 92.1680001,64.7839985 92.152,65.088 C92.1359999,65.3920015 92.128,65.6559989 92.128,65.88 C92.128,66.0613342 92.1333333,66.2799987 92.144,66.536 C92.1546667,66.7920013 92.1759998,67.0853317 92.208,67.416 C92.1226662,67.4373334 92.042667,67.448 91.968,67.448 C91.8826662,67.448 91.8133336,67.4346668 91.76,67.408 C91.7066664,67.3813332 91.6746667,67.3253338 91.664,67.24 C91.6213331,66.9626653 91.5520005,66.7173344 91.456,66.504 C91.3599995,66.2906656 91.2053344,66.184 90.992,66.184 L88.608,66.184 L88.608,69.896 C88.608,70.1093344 88.7439986,70.2559996 89.016,70.336 C89.2880014,70.4160004 89.6213314,70.4826664 90.016,70.536 C90.1440006,70.5466667 90.208,70.6373325 90.208,70.808 C90.208,70.882667 90.1973334,70.9733328 90.176,71.08 C89.9519989,71.0693333 89.7120013,71.0586667 89.456,71.048 C89.2426656,71.0373333 88.9946681,71.0266667 88.712,71.016 C88.4293319,71.0053333 88.1333349,71 87.824,71 C87.5359986,71 87.2106685,71.0079999 86.848,71.024 C86.4853315,71.0400001 86.1493349,71.0586666 85.84,71.08 C85.8186666,70.9733328 85.808,70.8880003 85.808,70.824 C85.808,70.6639992 85.8613328,70.5786667 85.968,70.568 C86.3200018,70.4826662 86.5973323,70.4000004 86.8,70.32 C87.0026677,70.2399996 87.104,70.0933344 87.104,69.88 L87.104,61.736 Z M96.176,61.736 C96.176,61.5226656 96.0933342,61.3733338 95.928,61.288 C95.7626658,61.2026662 95.4666688,61.122667 95.04,61.048 C94.965333,61.0266666 94.9200001,60.9973335 94.904,60.96 C94.8879999,60.9226665 94.88,60.8613338 94.88,60.776 C94.88,60.7119997 94.8906666,60.6266672 94.912,60.52 C95.2640018,60.5413334 95.6053317,60.5599999 95.936,60.576 C96.2666683,60.5920001 96.5813318,60.6 96.88,60.6 L100.048,60.6 C100.464002,60.6 100.858665,60.5840002 101.232,60.552 C101.605335,60.5199998 101.861333,60.504 102,60.504 C102.128001,60.504 102.218666,60.5919991 102.272,60.768 C102.325334,60.9440009 102.368,61.1546654 102.4,61.4 C102.432,61.6453346 102.469333,61.9039986 102.512,62.176 C102.554667,62.4480014 102.629333,62.6853323 102.736,62.888 C102.704,62.9306669 102.661334,62.9599999 102.608,62.976 C102.554666,62.9920001 102.501334,63 102.448,63 C102.319999,63 102.234667,62.9520005 102.192,62.856 C102.063999,62.5679986 101.938667,62.3226677 101.816,62.12 C101.693333,61.9173323 101.554667,61.7520006 101.4,61.624 C101.245333,61.4959994 101.061334,61.402667 100.848,61.344 C100.634666,61.285333 100.368002,61.256 100.048,61.256 L97.68,61.256 L97.68,65.512 L100.064,65.512 C100.277334,65.512 100.429333,65.408001 100.52,65.2 C100.610667,64.991999 100.682666,64.7440014 100.736,64.456 C100.768,64.3173326 100.863999,64.248 101.024,64.248 C101.109334,64.248 101.194666,64.2586666 101.28,64.28 C101.258667,64.5146678 101.24,64.7839985 101.224,65.088 C101.208,65.3920015 101.2,65.6559989 101.2,65.88 C101.2,66.0613342 101.205333,66.2799987 101.216,66.536 C101.226667,66.7920013 101.248,67.0853317 101.28,67.416 C101.194666,67.4373334 101.114667,67.448 101.04,67.448 C100.954666,67.448 100.885334,67.4346668 100.832,67.408 C100.778666,67.3813332 100.746667,67.3253338 100.736,67.24 C100.693333,66.9626653 100.624,66.7173344 100.528,66.504 C100.432,66.2906656 100.277334,66.184 100.064,66.184 L97.68,66.184 L97.68,69.896 C97.68,70.1093344 97.8159986,70.2559996 98.088,70.336 C98.3600014,70.4160004 98.6933314,70.4826664 99.088,70.536 C99.2160006,70.5466667 99.28,70.6373325 99.28,70.808 C99.28,70.882667 99.2693334,70.9733328 99.248,71.08 C99.0239989,71.0693333 98.7840013,71.0586667 98.528,71.048 C98.3146656,71.0373333 98.0666681,71.0266667 97.784,71.016 C97.5013319,71.0053333 97.2053349,71 96.896,71 C96.6079986,71 96.2826685,71.0079999 95.92,71.024 C95.5573315,71.0400001 95.2213349,71.0586666 94.912,71.08 C94.8906666,70.9733328 94.88,70.8880003 94.88,70.824 C94.88,70.6639992 94.9333328,70.5786667 95.04,70.568 C95.3920018,70.4826662 95.6693323,70.4000004 95.872,70.32 C96.0746677,70.2399996 96.176,70.0933344 96.176,69.88 L96.176,61.736 Z M106.672,69.88 C106.672,70.0933344 106.746666,70.2399996 106.896,70.32 C107.045334,70.4000004 107.322665,70.4826662 107.728,70.568 C107.834667,70.5893334 107.888,70.6746659 107.888,70.824 C107.888,70.8880003 107.877333,70.9733328 107.856,71.08 C107.525332,71.0586666 107.194668,71.0400001 106.864,71.024 C106.533332,71.0079999 106.218668,71 105.92,71 C105.631999,71 105.314668,71.0079999 104.968,71.024 C104.621332,71.0400001 104.293335,71.0586666 103.984,71.08 C103.962667,70.9733328 103.952,70.8880003 103.952,70.824 C103.952,70.6746659 104.005333,70.5893334 104.112,70.568 C104.517335,70.493333 104.794666,70.4133338 104.944,70.328 C105.093334,70.2426662 105.168,70.0933344 105.168,69.88 L105.168,61.736 C105.168,61.5226656 105.093334,61.3706671 104.944,61.28 C104.794666,61.1893329 104.517335,61.1120003 104.112,61.048 C104.048,61.0373333 104.005333,61.0053336 103.984,60.952 C103.962667,60.8986664 103.952,60.8400003 103.952,60.776 C103.952,60.7119997 103.962667,60.6266672 103.984,60.52 C104.304002,60.5413334 104.637332,60.5599999 104.984,60.576 C105.330668,60.5920001 105.642665,60.6 105.92,60.6 C106.186668,60.6 106.493332,60.5920001 106.84,60.576 C107.186668,60.5599999 107.525332,60.5413334 107.856,60.52 C107.877333,60.6266672 107.888,60.7119997 107.888,60.776 C107.888,60.9360008 107.834667,61.0266666 107.728,61.048 C107.322665,61.1120003 107.045334,61.1893329 106.896,61.28 C106.746666,61.3706671 106.672,61.5226656 106.672,61.736 L106.672,69.88 Z M114.704,71.192 C113.807996,71.192 113.024003,71.0533347 112.352,70.776 C111.679997,70.4986653 111.122669,70.1173358 110.68,69.632 C110.237331,69.1466642 109.906668,68.5760033 109.688,67.92 C109.469332,67.2639967 109.36,66.5573371 109.36,65.8 C109.36,65.1706635 109.469332,64.5360032 109.688,63.896 C109.906668,63.2559968 110.237331,62.6773359 110.68,62.16 C111.122669,61.6426641 111.679997,61.221335 112.352,60.896 C113.024003,60.570665 113.807996,60.408 114.704,60.408 C115.056002,60.408 115.378665,60.4159999 115.672,60.432 C115.965335,60.4480001 116.245332,60.4746665 116.512,60.512 C116.778668,60.5493335 117.039999,60.597333 117.296,60.656 C117.552001,60.714667 117.818665,60.781333 118.096,60.856 C118.106667,61.1440014 118.144,61.4959979 118.208,61.912 C118.272,62.3280021 118.357333,62.7493312 118.464,63.176 C118.378666,63.2186669 118.293334,63.24 118.208,63.24 C118.122666,63.24 118.045334,63.2293334 117.976,63.208 C117.906666,63.1866666 117.861333,63.1280005 117.84,63.032 C117.647999,62.3279965 117.344002,61.8266682 116.928,61.528 C116.511998,61.2293318 115.909337,61.08 115.12,61.08 C114.458663,61.08 113.874669,61.1866656 113.368,61.4 C112.861331,61.6133344 112.434668,61.9119981 112.088,62.296 C111.741332,62.6800019 111.480001,63.1413306 111.304,63.68 C111.127999,64.2186694 111.04,64.8186634 111.04,65.48 C111.04,66.2160037 111.151999,66.8933302 111.376,67.512 C111.600001,68.1306698 111.901331,68.6639978 112.28,69.112 C112.658669,69.5600022 113.101331,69.9066654 113.608,70.152 C114.114669,70.3973346 114.655997,70.52 115.232,70.52 C115.690669,70.52 116.077332,70.4746671 116.392,70.384 C116.706668,70.2933329 116.967999,70.1626675 117.176,69.992 C117.384001,69.8213325 117.559999,69.6106679 117.704,69.36 C117.848001,69.1093321 117.983999,68.8240016 118.112,68.504 C118.186667,68.3439992 118.314666,68.264 118.496,68.264 C118.549334,68.264 118.605333,68.2719999 118.664,68.288 C118.722667,68.3040001 118.768,68.3226666 118.8,68.344 C118.671999,68.7173352 118.544001,69.1279978 118.416,69.576 C118.287999,70.0240022 118.181334,70.4719978 118.096,70.92 C117.573331,71.0053338 117.040003,71.0719998 116.496,71.12 C115.951997,71.1680002 115.35467,71.192 114.704,71.192 L114.704,71.192 Z M122.88,61.256 L122.88,65.352 L125.376,65.352 C125.589334,65.352 125.741333,65.248001 125.832,65.04 C125.922667,64.831999 125.994666,64.5786682 126.048,64.28 C126.08,64.1413326 126.175999,64.072 126.336,64.072 C126.368,64.072 126.410666,64.0773333 126.464,64.088 C126.517334,64.0986667 126.56,64.1093333 126.592,64.12 C126.570667,64.3546678 126.552,64.6213318 126.536,64.92 C126.52,65.2186682 126.512,65.4799989 126.512,65.704 C126.512,65.8853342 126.517333,66.1066654 126.528,66.368 C126.538667,66.6293346 126.56,66.9253317 126.592,67.256 C126.506666,67.2773334 126.426667,67.288 126.352,67.288 C126.181332,67.288 126.08,67.2186674 126.048,67.08 C125.994666,66.7813318 125.922667,66.528001 125.832,66.32 C125.741333,66.111999 125.589334,66.008 125.376,66.008 L122.88,66.008 L122.88,69.784 C122.88,70.0080011 123.023999,70.157333 123.312,70.232 C123.600001,70.306667 124.074663,70.344 124.736,70.344 L125.616,70.344 C125.925335,70.344 126.194666,70.2986671 126.424,70.208 C126.653334,70.1173329 126.855999,69.9946674 127.032,69.84 C127.208001,69.6853326 127.365333,69.5013344 127.504,69.288 C127.642667,69.0746656 127.775999,68.8400013 127.904,68.584 C127.936,68.509333 128.015999,68.472 128.144,68.472 C128.197334,68.472 128.253333,68.4879998 128.312,68.52 C128.370667,68.5520002 128.426666,68.5839998 128.48,68.616 C128.384,68.8186677 128.301334,69.0613319 128.232,69.344 C128.162666,69.6266681 128.096,69.8959987 128.032,70.152 C127.968,70.4080013 127.901334,70.6266658 127.832,70.808 C127.762666,70.9893342 127.674667,71.08 127.568,71.08 C127.482666,71.08 127.360001,71.0746667 127.2,71.064 C127.039999,71.0533333 126.866668,71.0453334 126.68,71.04 C126.493332,71.0346666 126.304001,71.0266667 126.112,71.016 C125.919999,71.0053333 125.754667,71 125.616,71 L122.112,71 C121.802665,71 121.472002,71.0079999 121.12,71.024 C120.767998,71.0400001 120.432002,71.0586666 120.112,71.08 C120.090667,70.9733328 120.08,70.8880003 120.08,70.824 C120.08,70.6746659 120.133333,70.5893334 120.24,70.568 C120.645335,70.493333 120.935999,70.4133338 121.112,70.328 C121.288001,70.2426662 121.376,70.0933344 121.376,69.88 L121.376,61.736 C121.376,61.5226656 121.298667,61.3760004 121.144,61.296 C120.989333,61.2159996 120.688002,61.1333338 120.24,61.048 C120.133333,61.0266666 120.08,60.9360008 120.08,60.776 C120.08,60.7226664 120.082667,60.6773335 120.088,60.64 C120.093333,60.6026665 120.101333,60.5626669 120.112,60.52 C120.570669,60.5520002 120.954665,60.5733333 121.264,60.584 C121.573335,60.5946667 121.850665,60.6 122.096,60.6 L125.248,60.6 C125.728002,60.6 126.143998,60.5840002 126.496,60.552 C126.848002,60.5199998 127.082666,60.504 127.2,60.504 C127.338667,60.504 127.432,60.5919991 127.48,60.768 C127.528,60.9440009 127.568,61.1546654 127.6,61.4 C127.632,61.6453346 127.669333,61.9066653 127.712,62.184 C127.754667,62.4613347 127.834666,62.695999 127.952,62.888 C127.866666,62.9520003 127.770667,62.984 127.664,62.984 C127.525333,62.984 127.434667,62.9360005 127.392,62.84 C127.263999,62.5626653 127.141334,62.3253343 127.024,62.128 C126.906666,61.9306657 126.770667,61.7680006 126.616,61.64 C126.461333,61.5119994 126.274668,61.4160003 126.056,61.352 C125.837332,61.2879997 125.568002,61.256 125.248,61.256 L122.88,61.256 Z" id="LAW-OFFICE" fill="#1E1E1E"></path>
            <path d="M12,47 L152,47" id="Line" stroke="#4F4F4F" stroke-linecap="square"></path>
        </g>
    </g>
</svg>